# Blender 4.0.2
# www.blender.org
mtllib Wandslot_02_50s.mtl
o Wallslot_02_50s
v 0.080557 -0.091804 -0.016529
v 0.082544 -0.101796 -0.016529
v 0.088204 -0.110266 -0.016529
v 0.096675 -0.115926 -0.016529
v 0.106666 -0.117914 -0.016529
v 0.116658 -0.115926 -0.016529
v 0.125129 -0.110266 -0.016529
v 0.130788 -0.101796 -0.016529
v 0.132776 -0.091804 -0.016529
v 0.130788 -0.081813 -0.016529
v 0.125129 -0.073342 -0.016529
v 0.116658 -0.067682 -0.016529
v 0.106666 -0.065695 -0.016529
v 0.096675 -0.067682 -0.016529
v 0.088204 -0.073342 -0.016529
v 0.082544 -0.081813 -0.016529
v 0.029926 -0.091804 -0.001845
v 0.035767 -0.121172 -0.001845
v 0.035767 -0.121172 -0.018895
v 0.029926 -0.091804 -0.018895
v 0.052403 -0.146068 -0.001845
v 0.052403 -0.146068 -0.018895
v 0.077299 -0.162703 -0.001845
v 0.077299 -0.162703 -0.018895
v 0.106666 -0.168545 -0.001845
v 0.106666 -0.168545 -0.018895
v 0.136034 -0.162703 -0.001845
v 0.136034 -0.162703 -0.018895
v 0.160930 -0.146068 -0.001845
v 0.160930 -0.146068 -0.018895
v 0.177565 -0.121172 -0.001845
v 0.177565 -0.121172 -0.018895
v 0.183407 -0.091804 -0.001845
v 0.183407 -0.091804 -0.018895
v 0.177565 -0.062437 -0.001845
v 0.177565 -0.062437 -0.018895
v 0.160930 -0.037541 -0.001845
v 0.160930 -0.037541 -0.018895
v 0.136034 -0.020905 -0.001845
v 0.136034 -0.020905 -0.018895
v 0.106666 -0.015064 -0.001845
v 0.106666 -0.015064 -0.018895
v 0.077299 -0.020905 -0.001845
v 0.077299 -0.020905 -0.018895
v 0.052403 -0.037541 -0.001845
v 0.052403 -0.037541 -0.018895
v 0.035767 -0.062437 -0.001845
v 0.035767 -0.062437 -0.018895
v -0.035333 0.092358 -0.018704
v -0.032643 0.078837 -0.018704
v -0.024984 0.067374 -0.018704
v -0.013521 0.059715 -0.018704
v 0.000000 0.057025 -0.018704
v 0.013521 0.059715 -0.018704
v 0.024984 0.067374 -0.018704
v 0.032643 0.078837 -0.018704
v 0.035333 0.092358 -0.018704
v 0.032643 0.105879 -0.018704
v 0.024984 0.117342 -0.018704
v 0.013521 0.125001 -0.018704
v 0.000000 0.127691 -0.018704
v -0.013521 0.125001 -0.018704
v -0.024984 0.117342 -0.018704
v -0.032643 0.105879 -0.018704
v -0.103850 0.092358 0.001167
v -0.095945 0.052616 0.001167
v -0.095945 0.052616 -0.021906
v -0.103850 0.092358 -0.021906
v -0.073433 0.018925 0.001167
v -0.073433 0.018925 -0.021906
v -0.039742 -0.003587 0.001167
v -0.039742 -0.003587 -0.021907
v 0.000000 -0.011492 0.001167
v 0.000000 -0.011492 -0.021907
v 0.039742 -0.003587 0.001167
v 0.039742 -0.003587 -0.021907
v 0.073433 0.018925 0.001167
v 0.073433 0.018925 -0.021907
v 0.095945 0.052616 0.001167
v 0.095945 0.052616 -0.021907
v 0.103850 0.092358 0.001167
v 0.103850 0.092358 -0.021907
v 0.095945 0.132099 0.001167
v 0.095945 0.132099 -0.021907
v 0.073433 0.165791 0.001167
v 0.073433 0.165791 -0.021907
v 0.039742 0.188302 0.001167
v 0.039742 0.188302 -0.021907
v 0.000000 0.196208 0.001167
v 0.000000 0.196208 -0.021907
v -0.039742 0.188302 0.001167
v -0.039742 0.188302 -0.021907
v -0.073433 0.165791 0.001167
v -0.073433 0.165791 -0.021906
v -0.095945 0.132099 0.001167
v -0.095945 0.132099 -0.021906
v -0.196455 -0.000104 -0.015639
v -0.194755 -0.008653 -0.015639
v -0.189912 -0.015900 -0.015639
v -0.182664 -0.020743 -0.015639
v -0.174116 -0.022443 -0.015639
v -0.165567 -0.020743 -0.015639
v -0.158319 -0.015900 -0.015639
v -0.153477 -0.008653 -0.015639
v -0.151776 -0.000104 -0.015639
v -0.153477 0.008445 -0.015639
v -0.158319 0.015693 -0.015639
v -0.165567 0.020535 -0.015639
v -0.174116 0.022236 -0.015639
v -0.182664 0.020535 -0.015639
v -0.189912 0.015693 -0.015639
v -0.194755 0.008445 -0.015639
v -0.239775 -0.000104 -0.003076
v -0.234777 -0.025231 -0.003076
v -0.234777 -0.025231 -0.017664
v -0.239775 -0.000104 -0.017664
v -0.220544 -0.046532 -0.003076
v -0.220544 -0.046532 -0.017664
v -0.199242 -0.060765 -0.003076
v -0.199242 -0.060765 -0.017664
v -0.174116 -0.065764 -0.003076
v -0.174116 -0.065764 -0.017664
v -0.148989 -0.060765 -0.003076
v -0.148989 -0.060765 -0.017664
v -0.127687 -0.046532 -0.003076
v -0.127687 -0.046532 -0.017664
v -0.113454 -0.025231 -0.003076
v -0.113454 -0.025231 -0.017664
v -0.108456 -0.000104 -0.003076
v -0.108456 -0.000104 -0.017664
v -0.113454 0.025023 -0.003076
v -0.113454 0.025023 -0.017664
v -0.127687 0.046325 -0.003076
v -0.127687 0.046325 -0.017664
v -0.148989 0.060558 -0.003076
v -0.148989 0.060558 -0.017664
v -0.174116 0.065556 -0.003076
v -0.174116 0.065556 -0.017664
v -0.199242 0.060558 -0.003076
v -0.199242 0.060558 -0.017664
v -0.220544 0.046325 -0.003076
v -0.220544 0.046325 -0.017664
v -0.234777 0.025023 -0.003076
v -0.234777 0.025023 -0.017664
vn -1.0000 -0.0000 -0.0000
vn -0.7323 -0.0000 -0.6810
vn -0.6765 -0.2802 -0.6810
vn -0.9239 -0.3827 -0.0000
vn -0.5178 -0.5178 -0.6810
vn -0.7071 -0.7071 -0.0000
vn -0.2802 -0.6765 -0.6810
vn -0.3827 -0.9239 -0.0000
vn -0.0000 -0.7323 -0.6810
vn -0.0000 -1.0000 -0.0000
vn 0.2802 -0.6765 -0.6810
vn 0.3827 -0.9239 -0.0000
vn 0.5178 -0.5178 -0.6810
vn 0.7071 -0.7071 -0.0000
vn 0.6765 -0.2802 -0.6810
vn 0.9239 -0.3827 -0.0000
vn 0.7323 -0.0000 -0.6810
vn 1.0000 -0.0000 -0.0000
vn 0.6765 0.2802 -0.6810
vn 0.9239 0.3827 -0.0000
vn 0.5178 0.5178 -0.6810
vn 0.7071 0.7071 -0.0000
vn 0.2802 0.6765 -0.6810
vn 0.3827 0.9239 -0.0000
vn -0.0000 0.7323 -0.6810
vn -0.0000 1.0000 -0.0000
vn -0.2802 0.6765 -0.6810
vn -0.3827 0.9239 -0.0000
vn -0.5178 0.5178 -0.6810
vn -0.7071 0.7071 -0.0000
vn 0.0243 0.0101 -0.9997
vn 0.0263 -0.0000 -0.9997
vn 0.0243 -0.0101 -0.9997
vn 0.0186 -0.0186 -0.9997
vn 0.0101 -0.0243 -0.9997
vn -0.0000 -0.0263 -0.9997
vn -0.0101 -0.0243 -0.9997
vn -0.0186 -0.0186 -0.9997
vn -0.0243 -0.0101 -0.9997
vn -0.0263 -0.0000 -0.9997
vn -0.0243 0.0101 -0.9997
vn -0.0186 0.0186 -0.9997
vn -0.0101 0.0243 -0.9997
vn -0.0000 0.0263 -0.9997
vn 0.0101 0.0243 -0.9997
vn 0.0186 0.0186 -0.9997
vn -0.6765 0.2802 -0.6810
vn -0.9239 0.3827 -0.0000
vt 0.151272 0.426230
vt 0.151272 0.428706
vt 0.150963 0.428706
vt 0.150963 0.426230
vt 0.150654 0.428706
vt 0.150654 0.426230
vt 0.150344 0.428706
vt 0.150344 0.426230
vt 0.150035 0.428706
vt 0.150035 0.426230
vt 0.149725 0.428706
vt 0.149725 0.426230
vt 0.149416 0.428706
vt 0.149416 0.426230
vt 0.149106 0.428706
vt 0.149106 0.426230
vt 0.148797 0.428706
vt 0.148797 0.426230
vt 0.148488 0.428706
vt 0.148488 0.426230
vt 0.148178 0.428706
vt 0.148178 0.426230
vt 0.147869 0.428706
vt 0.147869 0.426230
vt 0.147559 0.428706
vt 0.147559 0.426230
vt 0.147250 0.428706
vt 0.147250 0.426230
vt 0.146941 0.428706
vt 0.146941 0.426230
vt 0.970273 0.425509
vt 0.970059 0.425552
vt 0.969845 0.425509
vt 0.969663 0.425388
vt 0.969542 0.425207
vt 0.969500 0.424993
vt 0.969542 0.424778
vt 0.969663 0.424597
vt 0.969845 0.424475
vt 0.970059 0.424433
vt 0.970273 0.424475
vt 0.970455 0.424597
vt 0.970576 0.424778
vt 0.970619 0.424993
vt 0.970576 0.425207
vt 0.970455 0.425388
vt 0.146631 0.428706
vt 0.146631 0.426230
vt 0.146322 0.428706
vt 0.146322 0.426230
vt 0.147559 0.425552
vt 0.147774 0.425509
vt 0.148014 0.426090
vt 0.147559 0.426181
vt 0.147955 0.425388
vt 0.148400 0.425833
vt 0.148076 0.425207
vt 0.148657 0.425447
vt 0.148119 0.424993
vt 0.148748 0.424993
vt 0.148076 0.424778
vt 0.148657 0.424538
vt 0.147955 0.424597
vt 0.148400 0.424152
vt 0.147774 0.424476
vt 0.148014 0.423895
vt 0.147559 0.424433
vt 0.147559 0.423804
vt 0.147345 0.424476
vt 0.147105 0.423895
vt 0.147164 0.424597
vt 0.146719 0.424152
vt 0.147042 0.424778
vt 0.146462 0.424538
vt 0.147000 0.424993
vt 0.146371 0.424993
vt 0.147042 0.425207
vt 0.146462 0.425447
vt 0.147164 0.425388
vt 0.146719 0.425833
vt 0.147345 0.425509
vt 0.147105 0.426090
vt 0.250273 0.425509
vt 0.250059 0.425552
vt 0.249845 0.425509
vt 0.249664 0.425388
vt 0.249542 0.425207
vt 0.249500 0.424993
vt 0.249542 0.424778
vt 0.249664 0.424597
vt 0.249845 0.424476
vt 0.250059 0.424433
vt 0.250273 0.424476
vt 0.250455 0.424597
vt 0.250576 0.424778
vt 0.250619 0.424993
vt 0.250576 0.425207
vt 0.250455 0.425388
vt 0.607773 0.550509
vt 0.607559 0.550552
vt 0.607345 0.550509
vt 0.607164 0.550388
vt 0.607042 0.550207
vt 0.607000 0.549992
vt 0.607042 0.549778
vt 0.607164 0.549597
vt 0.607345 0.549475
vt 0.607559 0.549433
vt 0.607773 0.549475
vt 0.607955 0.549597
vt 0.608076 0.549778
vt 0.608119 0.549992
vt 0.608076 0.550207
vt 0.607955 0.550388
s 1
usemtl ColorPalette
f 17/1/1 20/2/2 19/3/3 18/4/4
f 18/4/4 19/3/3 22/5/5 21/6/6
f 21/6/6 22/5/5 24/7/7 23/8/8
f 23/8/8 24/7/7 26/9/9 25/10/10
f 25/10/10 26/9/9 28/11/11 27/12/12
f 27/12/12 28/11/11 30/13/13 29/14/14
f 29/14/14 30/13/13 32/15/15 31/16/16
f 31/16/16 32/15/15 34/17/17 33/18/18
f 33/18/18 34/17/17 36/19/19 35/20/20
f 35/20/20 36/19/19 38/21/21 37/22/22
f 37/22/22 38/21/21 40/23/23 39/24/24
f 39/24/24 40/23/23 42/25/25 41/26/26
f 41/26/26 42/25/25 44/27/27 43/28/28
f 43/28/28 44/27/27 46/29/29 45/30/30
f 2/31/31 1/32/32 16/33/33 15/34/34 14/35/35 13/36/36 12/37/37 11/38/38 10/39/39 9/40/40 8/41/41 7/42/42 6/43/43 5/44/44 4/45/45 3/46/46
f 45/30/30 46/29/29 48/47/47 47/48/48
f 47/48/48 48/47/47 20/49/2 17/50/1
f 1/51/32 2/52/31 19/53/3 20/54/2
f 2/52/31 3/55/46 22/56/5 19/53/3
f 3/55/46 4/57/45 24/58/7 22/56/5
f 4/57/45 5/59/44 26/60/9 24/58/7
f 5/59/44 6/61/43 28/62/11 26/60/9
f 6/61/43 7/63/42 30/64/13 28/62/11
f 7/63/42 8/65/41 32/66/15 30/64/13
f 8/65/41 9/67/40 34/68/17 32/66/15
f 9/67/40 10/69/39 36/70/19 34/68/17
f 10/69/39 11/71/38 38/72/21 36/70/19
f 11/71/38 12/73/37 40/74/23 38/72/21
f 12/73/37 13/75/36 42/76/25 40/74/23
f 13/75/36 14/77/35 44/78/27 42/76/25
f 14/77/35 15/79/34 46/80/29 44/78/27
f 15/79/34 16/81/33 48/82/47 46/80/29
f 16/81/33 1/51/32 20/54/2 48/82/47
f 65/1/1 68/2/2 67/3/3 66/4/4
f 66/4/4 67/3/3 70/5/5 69/6/6
f 69/6/6 70/5/5 72/7/7 71/8/8
f 71/8/8 72/7/7 74/9/9 73/10/10
f 73/10/10 74/9/9 76/11/11 75/12/12
f 75/12/12 76/11/11 78/13/13 77/14/14
f 77/14/14 78/13/13 80/15/15 79/16/16
f 79/16/16 80/15/15 82/17/17 81/18/18
f 81/18/18 82/17/17 84/19/19 83/20/20
f 83/20/20 84/19/19 86/21/21 85/22/22
f 85/22/22 86/21/21 88/23/23 87/24/24
f 87/24/24 88/23/23 90/25/25 89/26/26
f 89/26/26 90/25/25 92/27/27 91/28/28
f 91/28/28 92/27/27 94/29/29 93/30/30
f 50/83/31 49/84/32 64/85/33 63/86/34 62/87/35 61/88/36 60/89/37 59/90/38 58/91/39 57/92/40 56/93/41 55/94/42 54/95/43 53/96/44 52/97/45 51/98/46
f 93/30/30 94/29/29 96/47/47 95/48/48
f 95/48/48 96/47/47 68/49/2 65/50/1
f 49/51/32 50/52/31 67/53/3 68/54/2
f 50/52/31 51/55/46 70/56/5 67/53/3
f 51/55/46 52/57/45 72/58/7 70/56/5
f 52/57/45 53/59/44 74/60/9 72/58/7
f 53/59/44 54/61/43 76/62/11 74/60/9
f 54/61/43 55/63/42 78/64/13 76/62/11
f 55/63/42 56/65/41 80/66/15 78/64/13
f 56/65/41 57/67/40 82/68/17 80/66/15
f 57/67/40 58/69/39 84/70/19 82/68/17
f 58/69/39 59/71/38 86/72/21 84/70/19
f 59/71/38 60/73/37 88/74/23 86/72/21
f 60/73/37 61/75/36 90/76/25 88/74/23
f 61/75/36 62/77/35 92/78/27 90/76/25
f 62/77/35 63/79/34 94/80/29 92/78/27
f 63/79/34 64/81/33 96/82/47 94/80/29
f 64/81/33 49/51/32 68/54/2 96/82/47
f 113/1/1 116/2/2 115/3/3 114/4/4
f 114/4/4 115/3/3 118/5/5 117/6/6
f 117/6/6 118/5/5 120/7/7 119/8/8
f 119/8/8 120/7/7 122/9/9 121/10/10
f 121/10/10 122/9/9 124/11/11 123/12/12
f 123/12/12 124/11/11 126/13/13 125/14/14
f 125/14/14 126/13/13 128/15/15 127/16/16
f 127/16/16 128/15/15 130/17/17 129/18/18
f 129/18/18 130/17/17 132/19/19 131/20/20
f 131/20/20 132/19/19 134/21/21 133/22/22
f 133/22/22 134/21/21 136/23/23 135/24/24
f 135/24/24 136/23/23 138/25/25 137/26/26
f 137/26/26 138/25/25 140/27/27 139/28/28
f 139/28/28 140/27/27 142/29/29 141/30/30
f 98/99/31 97/100/32 112/101/33 111/102/34 110/103/35 109/104/36 108/105/37 107/106/38 106/107/39 105/108/40 104/109/41 103/110/42 102/111/43 101/112/44 100/113/45 99/114/46
f 141/30/30 142/29/29 144/47/47 143/48/48
f 143/48/48 144/47/47 116/49/2 113/50/1
f 97/51/32 98/52/31 115/53/3 116/54/2
f 98/52/31 99/55/46 118/56/5 115/53/3
f 99/55/46 100/57/45 120/58/7 118/56/5
f 100/57/45 101/59/44 122/60/9 120/58/7
f 101/59/44 102/61/43 124/62/11 122/60/9
f 102/61/43 103/63/42 126/64/13 124/62/11
f 103/63/42 104/65/41 128/66/15 126/64/13
f 104/65/41 105/67/40 130/68/17 128/66/15
f 105/67/40 106/69/39 132/70/19 130/68/17
f 106/69/39 107/71/38 134/72/21 132/70/19
f 107/71/38 108/73/37 136/74/23 134/72/21
f 108/73/37 109/75/36 138/76/25 136/74/23
f 109/75/36 110/77/35 140/78/27 138/76/25
f 110/77/35 111/79/34 142/80/29 140/78/27
f 111/79/34 112/81/33 144/82/47 142/80/29
f 112/81/33 97/51/32 116/54/2 144/82/47
