# Blender 4.0.2
# www.blender.org
mtllib Bowl_Outside.mtl
o Bowl_Outside
v 0.000000 -0.001665 0.106915
v -0.053458 -0.001665 0.092591
v -0.092591 -0.001665 0.053458
v -0.106915 -0.001665 -0.000000
v -0.092591 -0.001665 -0.053458
v -0.053458 -0.001665 -0.092591
v -0.000000 -0.001665 -0.106915
v 0.053458 -0.001665 -0.092591
v 0.092591 -0.001665 -0.053458
v 0.106915 -0.001665 -0.000000
v 0.092591 -0.001665 0.053458
v 0.053458 -0.001665 0.092591
v 0.000000 0.058001 0.094424
v -0.047212 0.058001 0.081773
v -0.081773 0.058001 0.047212
v -0.094424 0.058001 -0.000000
v -0.081773 0.058001 -0.047212
v -0.047212 0.058001 -0.081773
v -0.000000 0.058001 -0.094424
v 0.047212 0.058001 -0.081773
v 0.081773 0.058001 -0.047212
v 0.094424 0.058001 -0.000000
v 0.081773 0.058001 0.047212
v 0.047212 0.058001 0.081773
v -0.000000 0.073569 0.081852
v -0.000000 0.075670 0.089584
v -0.044792 0.075670 0.077582
v -0.040926 0.073569 0.070886
v -0.077582 0.075670 0.044792
v -0.070886 0.073569 0.040926
v -0.089584 0.075670 0.000000
v -0.081852 0.073569 -0.000000
v -0.077582 0.075670 -0.044792
v -0.070886 0.073569 -0.040926
v -0.044792 0.075670 -0.077582
v -0.040926 0.073569 -0.070886
v -0.000000 0.075670 -0.089584
v -0.000000 0.073569 -0.081852
v 0.044792 0.075670 -0.077582
v 0.040926 0.073569 -0.070886
v 0.077582 0.075670 -0.044792
v 0.070886 0.073569 -0.040926
v 0.089584 0.075670 -0.000000
v 0.081852 0.073569 -0.000000
v 0.077582 0.075670 0.044792
v 0.070886 0.073569 0.040926
v 0.044792 0.075670 0.077582
v 0.040926 0.073569 0.070886
v 0.000000 0.072507 0.094424
v -0.047212 0.072507 0.081773
v -0.081773 0.072507 0.047212
v -0.094424 0.072507 -0.000000
v -0.081773 0.072507 -0.047212
v -0.047212 0.072507 -0.081773
v -0.000000 0.072507 -0.094424
v 0.047212 0.072507 -0.081773
v 0.081773 0.072507 -0.047212
v 0.094424 0.072507 -0.000000
v 0.081773 0.072507 0.047212
v 0.047212 0.072507 0.081773
v -0.000000 0.031152 0.066435
v -0.000000 0.046043 0.081852
v -0.000000 0.035513 0.077336
v -0.033218 0.031152 0.057535
v -0.040926 0.046043 0.070886
v -0.038668 0.035513 0.066975
v -0.057535 0.031152 0.033218
v -0.070886 0.046043 0.040926
v -0.066975 0.035513 0.038668
v -0.066435 0.031152 -0.000000
v -0.081852 0.046043 -0.000000
v -0.077336 0.035513 -0.000000
v -0.057535 0.031152 -0.033218
v -0.070886 0.046043 -0.040926
v -0.066975 0.035513 -0.038668
v -0.033218 0.031152 -0.057535
v -0.040926 0.046043 -0.070886
v -0.038668 0.035513 -0.066975
v -0.000000 0.031152 -0.066435
v -0.000000 0.046043 -0.081852
v -0.000000 0.035513 -0.077336
v 0.033218 0.031152 -0.057535
v 0.040926 0.046043 -0.070886
v 0.038668 0.035513 -0.066975
v 0.057535 0.031152 -0.033218
v 0.070886 0.046043 -0.040926
v 0.066975 0.035513 -0.038668
v 0.066435 0.031152 -0.000000
v 0.081852 0.046043 -0.000000
v 0.077336 0.035513 -0.000000
v 0.057535 0.031152 0.033218
v 0.070886 0.046043 0.040926
v 0.066975 0.035513 0.038668
v 0.033218 0.031152 0.057535
v 0.040926 0.046043 0.070886
v 0.038668 0.035513 0.066975
vn -0.0000 0.1048 0.9945
vn -0.4972 0.1048 0.8613
vn -0.4093 -0.5743 0.7089
vn -0.0000 -0.5743 0.8186
vn -0.8613 0.1048 0.4972
vn -0.7090 -0.5743 0.4093
vn -0.9945 0.1048 -0.0000
vn -0.8186 -0.5743 -0.0000
vn -0.8613 0.1048 -0.4972
vn -0.7090 -0.5743 -0.4093
vn -0.4972 0.1048 -0.8613
vn -0.4093 -0.5743 -0.7090
vn -0.0000 0.1048 -0.9945
vn -0.0000 -0.5743 -0.8186
vn 0.4972 0.1048 -0.8613
vn 0.4093 -0.5743 -0.7090
vn 0.8613 0.1048 -0.4972
vn 0.7089 -0.5743 -0.4093
vn 0.9945 0.1048 -0.0000
vn 0.8186 -0.5743 -0.0000
vn 0.8613 0.1048 0.4972
vn 0.7089 -0.5743 0.4093
vn 0.4972 0.1048 0.8613
vn 0.4093 -0.5743 0.7089
vn 0.7507 0.6607 -0.0000
vn 0.9808 0.1949 -0.0000
vn 0.8494 0.1949 0.4904
vn 0.6501 0.6607 0.3753
vn -0.0000 0.9757 -0.2192
vn -0.1096 0.9757 -0.1898
vn -0.1898 0.9757 -0.1096
vn -0.2192 0.9757 -0.0000
vn -0.1898 0.9757 0.1096
vn -0.1096 0.9757 0.1898
vn -0.0000 0.9757 0.2192
vn 0.1096 0.9757 0.1898
vn 0.1898 0.9757 0.1096
vn 0.2192 0.9757 -0.0000
vn 0.1898 0.9757 -0.1096
vn 0.1096 0.9757 -0.1898
vn 0.6501 0.6607 -0.3753
vn 0.8494 0.1949 -0.4904
vn 0.4904 0.1949 0.8494
vn 0.3753 0.6607 0.6501
vn -0.0000 0.1949 0.9808
vn -0.0000 0.6607 0.7507
vn -0.4904 0.1949 0.8494
vn -0.3753 0.6607 0.6501
vn -0.8494 0.1949 0.4904
vn -0.6501 0.6607 0.3753
vn -0.9808 0.1949 -0.0000
vn -0.7507 0.6607 -0.0000
vn -0.8494 0.1949 -0.4904
vn -0.6501 0.6607 -0.3753
vn -0.4904 0.1949 -0.8494
vn -0.3753 0.6607 -0.6501
vn -0.0000 0.4458 0.8952
vn -0.4476 0.4458 0.7752
vn -0.1106 0.9753 0.1915
vn -0.1915 0.9753 0.1106
vn -0.7752 0.4458 0.4476
vn 0.3753 0.6607 -0.6501
vn 0.4904 0.1949 -0.8494
vn 0.8952 0.4458 -0.0000
vn 0.2211 0.9753 -0.0000
vn 0.1915 0.9753 0.1106
vn 0.7752 0.4458 0.4476
vn -0.0000 0.4458 -0.8952
vn -0.0000 0.9753 -0.2211
vn 0.1105 0.9753 -0.1915
vn 0.4476 0.4458 -0.7752
vn -0.8952 0.4458 -0.0000
vn -0.2211 0.9753 -0.0000
vn -0.1915 0.9753 -0.1106
vn -0.7752 0.4458 -0.4476
vn 0.1106 0.9753 0.1915
vn 0.4476 0.4458 0.7752
vn 0.1915 0.9753 -0.1105
vn 0.7752 0.4458 -0.4476
vn -0.1106 0.9753 -0.1915
vn -0.4476 0.4458 -0.7752
vn -0.0000 0.9753 0.2211
vn -0.0000 0.6607 -0.7507
vn -0.0000 0.1949 -0.9808
vn 0.6306 0.6854 -0.3641
vn 0.7282 0.6854 -0.0000
vn -0.3641 0.6854 -0.6306
vn -0.0000 0.6854 -0.7282
vn 0.3641 0.6854 -0.6306
vn 0.6306 0.6854 0.3641
vn 0.3641 0.6854 0.6306
vn -0.0000 0.6854 0.7282
vn -0.3641 0.6854 0.6306
vn -0.6306 0.6854 0.3641
vn -0.7282 0.6854 -0.0000
vn -0.6306 0.6854 -0.3641
vt 0.656152 0.519199
vt 0.655304 0.519199
vt 0.655304 0.523080
vt 0.656152 0.523080
vt 0.654457 0.519199
vt 0.654457 0.523080
vt 0.653609 0.519199
vt 0.653609 0.523080
vt 0.652762 0.519199
vt 0.652762 0.523080
vt 0.651914 0.519199
vt 0.651914 0.523080
vt 0.651066 0.519199
vt 0.651066 0.523080
vt 0.650219 0.519199
vt 0.650219 0.523080
vt 0.649371 0.519199
vt 0.649371 0.523080
vt 0.648524 0.519199
vt 0.648524 0.523080
vt 0.647676 0.519199
vt 0.647676 0.523080
vt 0.646829 0.519199
vt 0.646829 0.523080
vt 0.645981 0.519199
vt 0.645981 0.523080
vt 0.655478 0.515452
vt 0.655227 0.514518
vt 0.952840 0.438224
vt 0.952082 0.438021
vt 0.951527 0.437466
vt 0.951324 0.436707
vt 0.951527 0.435949
vt 0.952082 0.435394
vt 0.952840 0.435190
vt 0.953599 0.435393
vt 0.954154 0.435949
vt 0.954357 0.436707
vt 0.954154 0.437465
vt 0.953599 0.438021
vt 0.655227 0.516387
vt 0.654543 0.513834
vt 0.654543 0.513834
vt 0.653609 0.513583
vt 0.652675 0.513834
vt 0.651991 0.514518
vt 0.651740 0.515452
vt 0.651991 0.516387
vt 0.652675 0.517071
vt 0.656152 0.518111
vt 0.655304 0.518111
vt 0.654830 0.517566
vt 0.654643 0.517242
vt 0.655399 0.516486
vt 0.655723 0.516673
vt 0.654543 0.517071
vt 0.651168 0.515452
vt 0.651542 0.515452
vt 0.651819 0.516486
vt 0.651495 0.516673
vt 0.653609 0.513011
vt 0.653609 0.513385
vt 0.652575 0.513662
vt 0.652389 0.513338
vt 0.656050 0.515452
vt 0.655676 0.515452
vt 0.655399 0.514419
vt 0.655723 0.514232
vt 0.652575 0.517242
vt 0.652389 0.517566
vt 0.651819 0.514419
vt 0.651495 0.514232
vt 0.654643 0.513662
vt 0.654830 0.513338
vt 0.653609 0.517519
vt 0.653609 0.517893
vt 0.655399 0.516486
vt 0.654457 0.518111
vt 0.647676 0.518111
vt 0.646829 0.518111
vt 0.648524 0.518111
vt 0.649371 0.518111
vt 0.650219 0.518111
vt 0.651066 0.518111
vt 0.651914 0.518111
vt 0.652762 0.518111
vt 0.653609 0.518111
vt 0.645981 0.518111
vt 0.653609 0.517321
vt 0.956284 0.357962
vt 0.956034 0.358896
vt 0.956041 0.358871
vt 0.956277 0.357988
vt 0.954702 0.436733
vt 0.954466 0.437616
vt 0.954415 0.359831
vt 0.953481 0.359580
vt 0.953507 0.359587
vt 0.954390 0.359824
vt 0.952815 0.438569
vt 0.951932 0.438332
vt 0.955350 0.359580
vt 0.955368 0.359562
vt 0.956015 0.358915
vt 0.954440 0.437660
vt 0.953793 0.438307
vt 0.956034 0.357028
vt 0.956277 0.357936
vt 0.956041 0.357053
vt 0.954466 0.435799
vt 0.954702 0.436681
vt 0.955350 0.356344
vt 0.956015 0.357009
vt 0.955369 0.356362
vt 0.953793 0.435108
vt 0.954440 0.435754
vt 0.954415 0.356093
vt 0.955324 0.356337
vt 0.954441 0.356100
vt 0.952866 0.434845
vt 0.953749 0.435082
vt 0.953481 0.356344
vt 0.954389 0.356100
vt 0.953507 0.356337
vt 0.951932 0.435082
vt 0.952815 0.434845
vt 0.952797 0.357028
vt 0.953462 0.356363
vt 0.952816 0.357009
vt 0.951241 0.435754
vt 0.951887 0.435108
vt 0.952546 0.357962
vt 0.952790 0.357053
vt 0.952553 0.357936
vt 0.950978 0.436681
vt 0.951215 0.435798
vt 0.952797 0.358896
vt 0.952553 0.357988
vt 0.952790 0.358871
vt 0.951215 0.437616
vt 0.950978 0.436733
vt 0.952816 0.358915
vt 0.953462 0.359562
vt 0.951887 0.438307
vt 0.951241 0.437660
vt 0.953749 0.438332
vt 0.952866 0.438569
vt 0.954441 0.359824
vt 0.955324 0.359587
vt 0.654543 0.517071
s 1
usemtl ColorPalette
f 13/1/1 14/2/2 2/3/3 1/4/4
f 14/2/2 15/5/5 3/6/6 2/3/3
f 15/5/5 16/7/7 4/8/8 3/6/6
f 16/7/7 17/9/9 5/10/10 4/8/8
f 17/9/9 18/11/11 6/12/12 5/10/10
f 18/11/11 19/13/13 7/14/14 6/12/12
f 19/13/13 20/15/15 8/16/16 7/14/14
f 20/15/15 21/17/17 9/18/18 8/16/16
f 21/17/17 22/19/19 10/20/20 9/18/18
f 22/19/19 23/21/21 11/22/22 10/20/20
f 23/21/21 24/23/23 12/24/24 11/22/22
f 24/23/23 13/25/1 1/26/4 12/24/24
f 32/27/25 71/27/26 74/28/27 34/28/28
f 61/29/29 94/30/30 91/31/31 88/32/32 85/33/33 82/34/34 79/35/35 76/36/36 73/37/37 70/38/38 67/39/39 64/40/40
f 30/41/41 68/41/42 71/27/26 32/27/25
f 34/28/28 74/28/27 77/42/43 36/43/44
f 36/43/44 77/43/43 80/44/45 38/44/46
f 38/44/46 80/44/45 83/45/47 40/45/48
f 40/45/48 83/45/47 86/46/49 42/46/50
f 42/46/50 86/46/49 89/47/51 44/47/52
f 44/47/52 89/47/51 92/48/53 46/48/54
f 46/48/54 92/48/53 95/49/55 48/49/56
f 49/50/57 50/51/58 14/2/2 13/1/1
f 50/52/58 27/53/59 29/54/60 51/55/61
f 28/56/62 65/56/63 68/41/42 30/41/41
f 58/57/64 43/58/65 45/59/66 59/60/67
f 55/61/68 37/62/69 39/63/70 56/64/71
f 52/65/72 31/66/73 33/67/74 53/68/75
f 59/60/67 45/59/66 47/69/76 60/70/77
f 56/64/71 39/63/70 41/71/78 57/72/79
f 53/68/75 33/67/74 35/73/80 54/74/81
f 60/70/77 47/69/76 26/75/82 49/76/57
f 57/72/79 41/71/78 43/58/65 58/57/64
f 54/74/81 35/73/80 37/62/69 55/61/68
f 51/55/61 29/77/60 31/66/73 52/65/72
f 50/51/58 51/78/61 15/5/5 14/2/2
f 59/79/67 60/80/77 24/23/23 23/21/21
f 58/81/64 59/79/67 23/21/21 22/19/19
f 57/82/79 58/81/64 22/19/19 21/17/17
f 56/83/71 57/82/79 21/17/17 20/15/15
f 55/84/68 56/83/71 20/15/15 19/13/13
f 54/85/81 55/84/68 19/13/13 18/11/11
f 53/86/75 54/85/81 18/11/11 17/9/9
f 52/87/72 53/86/75 17/9/9 16/7/7
f 51/78/61 52/87/72 16/7/7 15/5/5
f 60/80/77 49/88/57 13/25/1 24/23/23
f 26/75/82 25/89/83 28/56/62 27/53/59
f 27/53/59 28/56/62 30/41/41 29/54/60
f 29/77/60 30/41/41 32/27/25 31/66/73
f 31/66/73 32/27/25 34/28/28 33/67/74
f 33/67/74 34/28/28 36/43/44 35/73/80
f 35/73/80 36/43/44 38/44/46 37/62/69
f 37/62/69 38/44/46 40/45/48 39/63/70
f 39/63/70 40/45/48 42/46/50 41/71/78
f 41/71/78 42/46/50 44/47/52 43/58/65
f 43/58/65 44/47/52 46/48/54 45/59/66
f 45/59/66 46/48/54 48/49/56 47/69/76
f 47/69/76 48/49/56 25/89/83 26/75/82
f 48/49/56 95/49/55 62/89/84 25/89/83
f 49/76/57 26/75/82 27/53/59 50/52/58
f 71/90/26 68/91/42 69/92/85 72/93/86
f 72/94/86 69/95/85 67/39/39 70/38/38
f 62/96/84 95/97/55 96/98/87 63/99/88
f 63/100/88 96/101/87 94/30/30 61/29/29
f 68/91/42 65/102/63 66/103/89 69/104/85
f 69/105/85 66/106/89 64/40/40 67/39/39
f 74/107/27 71/90/26 72/108/86 75/109/90
f 75/110/90 72/111/86 70/38/38 73/37/37
f 77/112/43 74/107/27 75/113/90 78/114/91
f 78/115/91 75/116/90 73/37/37 76/36/36
f 80/117/45 77/112/43 78/118/91 81/119/92
f 81/120/92 78/121/91 76/36/36 79/35/35
f 83/122/47 80/117/45 81/123/92 84/124/93
f 84/125/93 81/126/92 79/35/35 82/34/34
f 86/127/49 83/122/47 84/128/93 87/129/94
f 87/130/94 84/131/93 82/34/34 85/33/33
f 89/132/51 86/127/49 87/133/94 90/134/95
f 90/135/95 87/136/94 85/33/33 88/32/32
f 92/137/53 89/132/51 90/138/95 93/139/96
f 93/140/96 90/141/95 88/32/32 91/31/31
f 95/97/55 92/137/53 93/142/96 96/143/87
f 96/144/87 93/145/96 91/31/31 94/30/30
f 61/29/29 64/40/40 66/146/89 63/147/88
f 63/148/88 66/149/89 65/102/63 62/96/84
f 25/89/83 62/89/84 65/150/63 28/56/62
